<?xml version="1.0" encoding="UTF-8"?><svg id="Capa_2" xmlns="http://www.w3.org/2000/svg" viewBox="0 0 148.59 115.68"><defs><style>.cls-1{fill:#fff;}</style></defs><g id="Capa_1-2"><polygon class="cls-1" points="94.45 28.5 94.45 28.5 39.61 9.52 39.61 9.52 0 38.15 0 115.68 9.37 115.68 39.61 115.68 39.61 115.68 39.61 115.68 71.25 115.68 94.45 115.68 118.12 115.68 148.59 115.68 148.59 0 94.45 28.5"/><polygon points="13.23 84.67 21.85 84.67 21.85 91 28.2 91 28.2 73.59 21.85 73.59 21.85 79.41 13.23 79.41 13.23 73.59 6.88 73.59 6.88 91 13.23 91 13.23 84.67"/><path d="M33.16,81.36c-1.14.42-1.99,1.02-2.53,1.81-.55.79-.82,1.72-.82,2.79,0,.98.25,1.88.75,2.69.5.81,1.24,1.45,2.21,1.92.97.47,2.14.71,3.51.71,1.52,0,2.74-.3,3.67-.91.63-.41,1.11-.97,1.46-1.65v2.28h5.68v-9.65c0-2.76-.77-4.79-2.32-6.09-1.55-1.3-3.74-1.96-6.56-1.96-1.37,0-2.74.18-4.12.55-1.38.36-2.56.87-3.54,1.51l2.02,4.1c.6-.43,1.33-.78,2.2-1.06.87-.28,1.72-.42,2.55-.42,1.28,0,2.22.26,2.81.79.53.47.81,1.14.86,1.97h-3.44c-1.77,0-3.23.21-4.38.63ZM41,83.95v1.47c-.24.68-.63,1.19-1.17,1.52-.55.33-1.16.5-1.84.5s-1.26-.17-1.67-.5c-.41-.33-.61-.75-.61-1.27,0-.56.2-.98.59-1.28.4-.3,1.08-.45,2.07-.45h2.63Z"/><polygon points="64.47 86.45 56.13 86.45 64.15 77.21 64.15 73.59 48.66 73.59 48.66 78.14 56.47 78.14 48.44 87.44 48.44 91 64.47 91 64.47 86.45"/><path d="M76.17,91h5.68v-9.65c0-2.76-.77-4.79-2.32-6.09-1.55-1.3-3.74-1.96-6.56-1.96-1.37,0-2.74.18-4.12.55-1.38.36-2.56.87-3.54,1.51l2.02,4.1c.6-.43,1.33-.78,2.2-1.06.87-.28,1.72-.42,2.55-.42,1.28,0,2.22.26,2.81.79.53.47.81,1.14.86,1.97h-3.44c-1.77,0-3.23.21-4.38.63-1.14.42-1.99,1.02-2.53,1.81-.55.79-.82,1.72-.82,2.79,0,.98.25,1.88.75,2.69.5.81,1.24,1.45,2.21,1.92.97.47,2.14.71,3.51.71,1.52,0,2.74-.3,3.67-.91.63-.41,1.11-.97,1.46-1.65v2.28ZM74.58,86.94c-.55.33-1.16.5-1.84.5s-1.26-.17-1.67-.5c-.41-.33-.61-.75-.61-1.27,0-.56.2-.98.59-1.28.4-.3,1.08-.45,2.07-.45h2.63v1.47c-.24.68-.63,1.19-1.17,1.52Z"/><polygon points="27.69 92.87 19.98 103.02 12.1 92.87 6.88 92.87 6.88 110.28 12.71 110.28 12.71 103.74 18.45 110.28 21.28 110.28 27.06 103.41 27.11 110.28 32.95 110.28 32.92 92.87 27.69 92.87"/><path d="M47.7,101.3c0,.94-.14,1.72-.42,2.33-.28.61-.67,1.05-1.17,1.33-.5.28-1.05.42-1.65.42-.92,0-1.63-.29-2.13-.88-.5-.59-.75-1.56-.75-2.9v-8.72h-6.09v9.72c0,1.84.32,3.35.95,4.54.63,1.19,1.51,2.06,2.63,2.61,1.12.56,2.39.83,3.8.83,1.33,0,2.55-.31,3.67-.95.56-.31,1.06-.71,1.49-1.19v1.84h5.77v-17.41h-6.09v8.43Z"/><path d="M71.11,93.41c-1.09-.56-2.31-.83-3.66-.83-1.45,0-2.76.33-3.91.98-.59.33-1.11.74-1.57,1.23v-1.92h-5.84v17.41h6.09v-8.37c0-.98.15-1.77.45-2.37.3-.6.72-1.04,1.25-1.33.53-.29,1.13-.43,1.8-.43.86,0,1.53.28,2.04.85.5.57.75,1.47.75,2.71v8.95h6.12v-9.94c0-1.8-.32-3.26-.95-4.39-.63-1.13-1.49-1.98-2.58-2.53Z"/><path d="M108.55,101.3c0,.94-.14,1.72-.42,2.33-.28.61-.67,1.05-1.17,1.33-.5.28-1.05.42-1.65.42-.92,0-1.63-.29-2.13-.88-.5-.59-.75-1.56-.75-2.9v-8.72h-6.09v9.72c0,1.84.32,3.35.95,4.54.63,1.19,1.51,2.06,2.63,2.61,1.12.56,2.39.83,3.8.83,1.33,0,2.55-.31,3.67-.95.56-.31,1.06-.71,1.49-1.19v1.84h5.77v-17.41h-6.09v8.43Z"/><rect x="116.99" y="92.87" width="6.09" height="17.41"/><path d="M139.38,94.54c-1.55-1.3-3.74-1.96-6.56-1.96-1.37,0-2.74.18-4.12.55-1.38.36-2.56.87-3.54,1.51l2.02,4.1c.6-.43,1.33-.78,2.2-1.06.87-.28,1.72-.42,2.55-.42,1.28,0,2.22.26,2.81.79.53.47.81,1.14.86,1.97h-3.44c-1.77,0-3.23.21-4.38.63-1.14.42-1.99,1.02-2.53,1.81-.55.79-.82,1.72-.82,2.79,0,.98.25,1.88.75,2.69.5.81,1.24,1.45,2.21,1.92.97.47,2.14.71,3.51.71,1.52,0,2.74-.3,3.67-.91.63-.41,1.11-.97,1.46-1.65v2.28h5.68v-9.65c0-2.76-.77-4.79-2.32-6.09ZM134.44,106.22c-.55.33-1.16.5-1.84.5s-1.26-.17-1.67-.5c-.41-.33-.61-.75-.61-1.27,0-.56.2-.98.59-1.28.4-.3,1.08-.45,2.07-.45h2.63v1.47c-.24.68-.63,1.19-1.17,1.52Z"/><path d="M89.17,105.73c-.07.03-.14.06-.21.09-.67.24-1.35.35-2.05.35s-1.27-.11-1.8-.33c-.53-.22-.99-.53-1.38-.93-.39-.4-.68-.89-.89-1.46-.21-.57-.32-1.2-.32-1.88,0-.72.1-1.36.32-1.92.21-.56.51-1.04.89-1.45.39-.4.85-.71,1.41-.92.55-.21,1.17-.32,1.85-.32.82,0,1.57.17,2.25.51.67.34,1.3.85,1.88,1.51l3.97-3.5c-.93-1.14-2.11-2.01-3.53-2.63-1.43-.61-3.05-.92-4.88-.92-1.52,0-2.92.23-4.19.7-1.27.46-2.37,1.13-3.3,1.98-.93.86-1.65,1.88-2.16,3.05-.51,1.17-.76,2.47-.76,3.89s.25,2.72.76,3.89c.51,1.17,1.22,2.19,2.14,3.05.92.86,2.01,1.52,3.26,1.98,1.25.46,2.62.7,4.11.7,1.35,0,2.74-.2,4.18-.6,1.44-.4,2.72-.98,3.84-1.74v-7.78h-5.39v4.66Z"/></g></svg>