<?xml version="1.0" encoding="UTF-8"?><svg id="Capa_2" xmlns="http://www.w3.org/2000/svg" viewBox="0 0 342.42 86.18"><defs><style>.cls-1{fill:#fff;}</style></defs><g id="Capa_1-2"><polygon class="cls-1" points="70.36 21.23 70.36 21.23 29.51 7.09 29.51 7.09 0 28.42 0 86.18 6.98 86.18 29.51 86.18 29.51 86.18 29.51 86.18 53.08 86.18 70.36 86.18 88 86.18 110.69 86.18 110.69 0 70.36 21.23"/><polygon class="cls-1" points="127.62 41.83 142.04 41.83 142.04 52.42 152.65 52.42 152.65 23.32 142.04 23.32 142.04 33.04 127.62 33.04 127.62 23.32 117 23.32 117 52.42 127.62 52.42 127.62 41.83"/><path class="cls-1" d="M160.94,36.31c-1.91.7-3.32,1.71-4.24,3.03-.91,1.32-1.37,2.88-1.37,4.66,0,1.64.42,3.15,1.26,4.5.84,1.36,2.07,2.43,3.7,3.22,1.63.79,3.58,1.18,5.87,1.18,2.54,0,4.58-.51,6.14-1.53,1.05-.69,1.85-1.62,2.44-2.77v3.81h9.49v-16.14c0-4.61-1.3-8.01-3.89-10.19-2.59-2.18-6.25-3.27-10.96-3.27-2.29,0-4.58.3-6.89.91-2.3.61-4.28,1.45-5.92,2.52l3.38,6.86c1-.72,2.22-1.3,3.67-1.77,1.45-.46,2.87-.7,4.26-.7,2.14,0,3.71.44,4.69,1.31.89.79,1.36,1.9,1.44,3.3h-5.76c-2.97,0-5.41.35-7.32,1.05ZM174.05,40.63v2.47c-.39,1.14-1.05,1.99-1.96,2.55-.91.55-1.94.83-3.08.83s-2.11-.28-2.79-.83c-.68-.55-1.02-1.26-1.02-2.12,0-.93.33-1.64.99-2.14.66-.5,1.81-.75,3.46-.75h4.4Z"/><polygon class="cls-1" points="213.29 44.81 199.34 44.81 212.75 29.37 212.75 23.31 186.86 23.31 186.86 30.92 199.91 30.92 186.48 46.47 186.48 52.42 213.29 52.42 213.29 44.81"/><path class="cls-1" d="M232.86,52.42h9.49v-16.14c0-4.61-1.3-8.01-3.89-10.19-2.59-2.18-6.25-3.27-10.96-3.27-2.29,0-4.58.3-6.89.91-2.3.61-4.28,1.45-5.92,2.52l3.38,6.86c1-.72,2.22-1.3,3.67-1.77,1.45-.46,2.87-.7,4.26-.7,2.14,0,3.71.44,4.69,1.31.89.79,1.36,1.9,1.44,3.3h-5.76c-2.97,0-5.41.35-7.32,1.05-1.91.7-3.32,1.71-4.24,3.03-.91,1.32-1.37,2.88-1.37,4.66,0,1.64.42,3.15,1.26,4.5.84,1.36,2.07,2.43,3.7,3.22,1.63.79,3.58,1.18,5.87,1.18,2.54,0,4.58-.51,6.14-1.53,1.05-.69,1.85-1.62,2.44-2.77v3.81ZM230.2,45.64c-.91.55-1.94.83-3.08.83s-2.11-.28-2.79-.83c-.68-.55-1.02-1.26-1.02-2.12,0-.93.33-1.64.99-2.14.66-.5,1.81-.75,3.46-.75h4.4v2.47c-.39,1.14-1.05,1.99-1.96,2.55Z"/><polygon class="cls-1" points="151.8 55.55 138.91 72.51 125.74 55.55 117 55.55 117 84.66 126.76 84.66 126.76 73.72 136.36 84.66 141.07 84.66 150.74 73.17 150.83 84.66 160.59 84.66 160.53 55.55 151.8 55.55"/><path class="cls-1" d="M185.25,69.65c0,1.57-.23,2.87-.7,3.89-.47,1.02-1.12,1.76-1.96,2.22-.84.46-1.76.7-2.76.7-1.54,0-2.73-.49-3.57-1.47-.84-.98-1.26-2.6-1.26-4.85v-14.58h-10.19v16.24c0,3.07.53,5.6,1.58,7.59,1.05,1.98,2.52,3.44,4.4,4.37,1.88.93,3.99,1.39,6.35,1.39,2.22,0,4.26-.53,6.14-1.58.94-.53,1.77-1.19,2.49-1.98v3.08h9.65v-29.11h-10.19v14.1Z"/><path class="cls-1" d="M224.38,56.46c-1.82-.93-3.86-1.39-6.11-1.39-2.43,0-4.61.55-6.54,1.63-.98.56-1.86,1.24-2.63,2.05v-3.21h-9.76v29.11h10.19v-13.99c0-1.64.25-2.97.75-3.97.5-1,1.2-1.74,2.09-2.22.89-.48,1.89-.72,3-.72,1.43,0,2.56.47,3.4,1.42.84.95,1.26,2.46,1.26,4.53v14.96h10.24v-16.62c0-3-.53-5.45-1.58-7.34-1.05-1.89-2.49-3.31-4.32-4.24Z"/><path class="cls-1" d="M286.99,69.65c0,1.57-.23,2.87-.7,3.89-.47,1.02-1.12,1.76-1.96,2.22-.84.46-1.76.7-2.76.7-1.54,0-2.73-.49-3.57-1.47-.84-.98-1.26-2.6-1.26-4.85v-14.58h-10.19v16.24c0,3.07.53,5.6,1.58,7.59,1.05,1.98,2.52,3.44,4.4,4.37,1.88.93,3.99,1.39,6.35,1.39,2.22,0,4.26-.53,6.14-1.58.94-.53,1.77-1.19,2.49-1.98v3.08h9.65v-29.11h-10.19v14.1Z"/><rect class="cls-1" x="301.09" y="55.55" width="10.19" height="29.11"/><path class="cls-1" d="M338.54,58.33c-2.59-2.18-6.25-3.27-10.96-3.27-2.29,0-4.58.3-6.89.91-2.3.61-4.28,1.45-5.92,2.52l3.38,6.86c1-.72,2.22-1.3,3.67-1.77,1.45-.46,2.87-.7,4.26-.7,2.14,0,3.71.44,4.69,1.31.89.79,1.36,1.9,1.44,3.3h-5.76c-2.97,0-5.41.35-7.32,1.05-1.91.7-3.32,1.71-4.24,3.03-.91,1.32-1.37,2.88-1.37,4.66,0,1.64.42,3.15,1.26,4.5.84,1.36,2.07,2.43,3.7,3.22,1.63.79,3.58,1.18,5.87,1.18,2.54,0,4.58-.51,6.14-1.53,1.05-.69,1.85-1.62,2.44-2.77v3.81h9.49v-16.14c0-4.61-1.3-8.01-3.89-10.19ZM330.28,77.88c-.91.55-1.94.83-3.08.83s-2.11-.28-2.79-.83c-.68-.55-1.02-1.26-1.02-2.12,0-.93.33-1.64.99-2.14.66-.5,1.81-.75,3.46-.75h4.4v2.47c-.39,1.14-1.05,1.99-1.96,2.55Z"/><path class="cls-1" d="M254.59,77.05c-.12.05-.24.1-.35.15-1.11.4-2.26.59-3.43.59s-2.12-.18-3.01-.55c-.89-.37-1.66-.89-2.31-1.56-.64-.67-1.14-1.49-1.49-2.44-.35-.95-.53-2-.53-3.14,0-1.2.18-2.27.53-3.21.35-.94.85-1.74,1.49-2.42.64-.67,1.43-1.19,2.35-1.54.92-.35,1.96-.53,3.1-.53,1.38,0,2.63.29,3.76.86,1.13.57,2.17,1.41,3.14,2.53l6.64-5.84c-1.55-1.9-3.52-3.37-5.91-4.39-2.39-1.03-5.11-1.54-8.15-1.54-2.55,0-4.89.39-7.01,1.16-2.12.78-3.96,1.88-5.51,3.32-1.55,1.44-2.75,3.14-3.6,5.1-.85,1.96-1.27,4.13-1.27,6.5s.42,4.54,1.27,6.5c.85,1.96,2.04,3.66,3.58,5.1,1.54,1.44,3.35,2.54,5.45,3.32,2.09.78,4.39,1.16,6.88,1.16,2.26,0,4.58-.34,6.99-1.01,2.4-.67,4.54-1.64,6.42-2.9v-13.01h-9.01v7.79Z"/></g></svg>